<svg width="20" height="20" viewBox="0 0 20 20" fill="none" xmlns="http://www.w3.org/2000/svg">
<g clip-path="url(#clip0_2253_10464)">
<path d="M11.1291 3.32449L11.1288 3.32473L10.3593 4.1177L10.0005 4.48744L9.64166 4.1177L8.87213 3.32473L8.87156 3.32414C7.07232 1.46397 4.18297 1.19242 2.26626 2.82577L11.1291 3.32449ZM11.1291 3.32449C12.9325 1.46366 15.8182 1.19259 17.7348 2.82582M11.1291 3.32449L17.7348 2.82582M17.7348 2.82582C19.965 4.72961 20.084 8.15321 18.0828 10.2184L18.0827 10.2185L10.5242 18.0231C10.5242 18.0231 10.5242 18.0232 10.5241 18.0232C10.2323 18.3242 9.76473 18.3242 9.47293 18.0232C9.4729 18.0232 9.47287 18.0231 9.47284 18.0231L1.91455 10.2187C-0.0831449 8.1535 0.0359219 4.72966 2.26619 2.82582H17.7348Z" stroke="#0D706D"/>
</g>
<defs>
<clipPath id="clip0_2253_10464">
<rect width="20" height="20" fill="white"/>
</clipPath>
</defs>
</svg>
